#!OML:ASF E:/inclinewalkrobotboard/Project1/Captureday1/Session1/subject1.ASF
:FULLY-SPECIFIED
:DEGREES
388
root 0 0 0 1.8912529391753827 -10.87091790779875 0.9112902775438275
lowerback -0.2686814119244876 -1.6751843710359884 -2.7562716062535584
upperback -0.5441017668729923 -2.2005210379775675 1.7102217477982196
thorax -0.21813722141288117 -1.0826884465618476 3.2608899045027178
lowerneck -24.816617179515493 -1.6797186520686604 -7.940443053592558
upperneck 27.74222877198418 0.23801702740152098 2.2317501435825045
head 13.442909437076217 -0.5727460340300999 2.33464982450802
rclavicle -4.778767906447492E-15 9.13040794077511E-16
rhumerus -33.149237786438825 -5.099454345099551 -80.05226368741687
rradius 29.861864507698378
rwrist 20.17356031875446
rhand -17.37101805070011 8.779985878922588
rfingers 7.125019999999936
rthumb 8.874520625668328 -21.027869965668547
lclavicle -2.1486822734710842E-15 5.101111618702078E-16
lhumerus -20.369570640465724 -4.665283991734258 91.10909578111317
lradius 64.96471008414085
lwrist 2.0646801429500807
lhand -28.78451604435578 20.992945000409907
lfingers 7.125020000000024
lthumb -2.1487308406197565 50.98982800579712
rfemur -28.213053911403243 -0.6250340893708533 19.64975061942826
rtibia 63.40012328421114
rfoot -5.409262087531566 -7.717476785359871
rtoes 2.8359751325765075
lfemur 0.7173766390559523 -3.4055246081096486 -29.558675246308745
ltibia 21.502030908426434
lfoot -18.64725546860656 0.05553780996545754
ltoes 5.341592453395071
389
root 0 0 0 1.9372774054059398 -10.92141398508484 0.9451656138813143
lowerback -0.344577484988436 -1.7186559194495286 -2.7846455965214156
upperback -0.5055802361806517 -2.2581242421955987 1.7027986229156777
thorax -0.13348023017041644 -1.1141448259790923 3.2677096646593675
lowerneck -25.049670474119072 -1.7112992428038099 -8.008385240574544
upperneck 27.52929702771258 0.20105880679139665 2.302749501113351
head 13.40251427457199 -0.5689103994693162 2.3589881401136643
rclavicle -3.1912990834714335E-15 7.80984556477091E-16
rhumerus -33.41657493582846 -5.006230743542499 -79.6319661394217
rradius 29.554219149830686
rwrist 20.32629173269278
rhand -17.374448766501352 8.77258026616525
rfingers 7.125019999999938
rthumb 8.871099581761685 -21.024914955380662
lclavicle -1.68868670343637E-15 5.960030133409068E-16
lhumerus -20.67999686413301 -5.926157118935007 91.29763008174811
lradius 65.39138921973175
lwrist 2.337761092129291
lhand -28.766312265987352 21.19525377192908
lfingers 7.125020000000023
lthumb -2.137157880417867 51.206064943877955
rfemur -30.70203397504303 0.43518665627493025 18.04466894579149
rtibia 53.94050750947966
rfoot -5.497810175560309 -9.046354422766386
rtoes 0.27142131119715973
lfemur 4.401251911185256 -3.1707533915194768 -30.49836801053423
ltibia 20.660662884473766
lfoot -20.090997022852612 -0.5156154023039337
ltoes 2.6704943067079725
390
root 0 0 0 1.9834169381276179 -10.969164147401816 0.9778190290595141
lowerback -0.40683541203603335 -1.760742116336823 -2.806377858628635
upperback -0.4663637306831899 -2.3137329049629702 1.700427500093987
thorax -0.05446904551250964 -1.144726702948166 3.2760690695118084
lowerneck -25.302549149646488 -1.739472317174852 -8.05874042478568
upperneck 27.309841402961073 0.17233302870318945 2.355538742230095
head 13.365708846413328 -0.563732940432833 2.376437470935404
rclavicle -5.971650086975847E-16 2.0746875781532222E-16
rhumerus -33.6554781107621 -4.673548434902337 -79.13942011721437
rradius 29.205033629140818
rwrist 20.41303831000267
rhand -17.42507265664422 8.815451025722385
rfingers 7.125019999999938
rthumb 8.82177856997171 -20.97143490150448
lclavicle -1.2913493038230462E-17 5.472057572591031E-16
lhumerus -20.814769533359225 -7.140542891302882 91.34700224540015
lradius 65.9242355641935
lwrist 2.6808123364378225
lhand -28.713709615775695 21.594854253585968
lfingers 7.125020000000023
lthumb -2.0903120881912036 51.6224577307201
rfemur -32.52983310533519 2.0925793764852942 16.95148991375366
rtibia 41.717078562779555
rfoot -5.671982589313346 -10.921301118830108
rtoes -2.1856604742109385
lfemur 8.46436126444129 -3.003179078981637 -31.177466744041926
ltibia 19.68586789413017
lfoot -20.6084834698976 -1.4693563164438679
ltoes -0.44927888322162524
391
root 0 0 0 2.0152921387406666 -10.993256604433444 1.01187165179522
lowerback -0.43225786809100275 -1.7898266449172646 -2.8172617986017325
upperback -0.44149730263887355 -2.35275432746778 1.7224707549142324
thorax -0.010126080127122794 -1.1662292943552865 3.3040766672680864
lowerneck -25.64483846702041 -1.7752422325959725 -8.06602476590849
upperneck 26.880127162636235 0.13714593050577029 2.4103694825045494
head 13.273040295593189 -0.5581346115730048 2.386717920547978
rclavicle 2.1855016997340685E-15 -7.350499378733359E-16
rhumerus -33.84100232659429 -4.075395868168131 -78.61843870204326
rradius 28.851728167016457
rwrist 20.422447835582307
rhand -17.533630017244594 8.903231401093258
rfingers 7.125019999999936
rthumb 8.716565602394592 -20.87814351883552
lclavicle 1.7570786866403587E-15 4.344100812098714E-16
lhumerus -20.757451974895453 -8.279202163069197 91.29209485802586
lradius 66.49513865038595
lwrist 3.0451583997585066
lhand -28.6715255883965 22.128663335088405
lfingers 7.125020000000022
lthumb -2.0535549445059376 52.1720797361998
rfemur -32.948202040097264 3.8428960686963585 17.303971353557227
rtibia 30.2316611886678
rfoot -6.54289723436249 -12.703803757364476
rtoes -3.601229790291372
lfemur 13.585786187935506 -3.105815524148528 -31.386335191334496
ltibia 19.66431903533043
lfoot -18.771278573317073 -3.2810125769009586
ltoes -4.189122833169062
392
root 0 0 0 2.010642113607988 -10.97900247292124 1.0513081194345708
lowerback -0.3956436815256861 -1.7936653941585385 -2.809038271820485
upperback -0.4551674708056532 -2.359675909249776 1.7895898689018963
thorax -0.04067720555108689 -1.1693229958624969 3.368879651364812
lowerneck -26.189347289969167 -1.8326221713475648 -7.989011954453141
upperneck 25.971747448980636 0.0828530988742372 2.4759138541309706
head 13.052441459955727 -0.5527324529863787 2.3823559072612825
rclavicle 3.766855068618918E-15 -1.4394492567464788E-15
rhumerus -33.95824968386946 -3.3411432773776077 -78.16519796994478
rradius 28.56656366499695
rwrist 20.386656470485406
rhand -17.67321452907209 8.992015754538409
rfingers 7.125019999999935
rthumb 8.581796938438412 -20.793958187285515
lclavicle 2.7357592407241316E-15 4.773160776992632E-16
lhumerus -20.53092542663263 -9.291407826745278 91.1678963060933
lradius 66.99761317848234
lwrist 3.3928332366022835
lhand -28.656591430293282 22.67008327254243
lfingers 7.12502000000002
lthumb -2.0426674521664276 52.72587005039771
rfemur -33.251584761444704 4.963016843988909 17.896474338547435
rtibia 23.07314092245007
rfoot -7.241730122350241 -13.42842986338002
rtoes -3.9973040170790535
lfemur 20.01931805367956 -3.5430584396184037 -30.695294379430187
ltibia 21.2099915760694
lfoot -14.123545488723547 -6.4503472054777715
ltoes -9.922420843581023
393
root 0 0 0 1.9802733889782935 -10.930225952108904 1.0808316086377299
lowerback -0.2902016904747706 -1.7778618701303202 -2.772501388862694
upperback -0.48560909149446413 -2.3414497718849088 1.8991194487920549
thorax -0.12796620859659447 -1.1587457091739937 3.4624281588128865
lowerneck -26.78931775315548 -1.8724545390750724 -7.835925519235794
upperneck 24.820654127842474 0.0607845049764042 2.5058378924217504
head 12.760698058083792 -0.5348756477466273 2.357847920218751
rclavicle 3.614320971273356E-15 -1.914757302494405E-15
rhumerus -34.031182063825426 -2.7119523292775995 -77.84087993911052
rradius 28.385201602178835
rwrist 20.366565231451325
rhand -17.786692486987196 9.035024333467144
rfingers 7.125019999999937
rthumb 8.47227594496595 -20.759747267789017
lclavicle 2.6567112986035544E-15 3.7191656602684433E-16
lhumerus -20.27960607024971 -10.049815025036658 90.98352945427033
lradius 67.36571106395746
lwrist 3.6878874983418686
lhand -28.61167965799539 23.051671268794486
lfingers 7.125020000000016
lthumb -2.0021973004020994 53.117313744000775
rfemur -34.13164057798672 5.481194720745739 18.59016541139966
rtibia 19.657355044818534
rfoot -7.115023263095077 -12.946716185085073
rtoes -3.3648001775810803
lfemur 21.909639318556827 -3.6325899407356745 -27.98542861910084
ltibia 28.370783123770053
lfoot -7.675479327439896 -10.717874696118027
ltoes -15.82694303403657
394
root 0 0 0 1.927989816871726 -10.852503875001428 1.0552805169357677
lowerback -0.12991186692769952 -1.737760531393198 -2.692699994738488
upperback -0.5160729130259565 -2.289830847370335 2.020738507485136
thorax -0.24907125909092542 -1.131591702694951 3.543942153254378
lowerneck -26.954480281378572 -1.8273875925463237 -7.651514452380872
upperneck 24.285202440950826 0.1472198931062777 2.405520111670854
head 12.617498250238553 -0.5045811093763279 2.3081446079007004
rclavicle 2.255883866394164E-15 -2.2623852973267252E-15
rhumerus -34.063350084526405 -2.4512165672587374 -77.6831791136973
rradius 28.292042848861872
rwrist 20.36573811646985
rhand -17.81828144269368 9.054434058874245
rfingers 7.125019999999938
rthumb 8.441727337379694 -20.74419927991194
lclavicle 1.1327424386374302E-15 1.0211273814044343E-16
lhumerus -20.185808175735218 -10.084014215197442 90.7963688982155
lradius 67.35335992007072
lwrist 3.8312089475803988
lhand -28.483695318027163 23.077910943809616
lfingers 7.125020000000013
lthumb -1.8825639108131114 53.15036933388665
rfemur -35.18973798684925 6.185011048407401 20.743617952357383
rtibia 16.01121128264493
rfoot -5.339127028953055 -11.163095298133946
rtoes 0.24464957084167915
lfemur 15.095688923428549 -2.840260109919347 -22.64784042944437
ltibia 37.86317623566302
lfoot 1.7900342619910852 -15.102139657810557
ltoes -18.25103705904176
395
root 0 0 0 1.8515076828665784 -10.795380461620978 0.9507778380645613
lowerback 0.013117420763727905 -1.6776129707320895 -2.57763771091602
upperback -0.5524140990647538 -2.208362436313528 2.086148745741098
thorax -0.3728796430733652 -1.0900816258418768 3.547071925971536
lowerneck -26.31890399554947 -1.6755108632969145 -7.5026625759220185
upperneck 25.20559029197139 0.3699534539297794 2.0965377279281374
head 12.864778179145134 -0.48131081092567374 2.2301310533694223
rclavicle 1.3868821278747578E-15 -2.6313571245816725E-15
rhumerus -34.06262238257949 -2.7736042104940903 -77.72436600358178
rradius 28.27138332193918
rwrist 20.40591632753409
rhand -17.723889946510702 9.056147997595579
rfingers 7.125019999999935
rthumb 8.532625988412724 -20.733418449274104
lclavicle 4.62845841895815E-16 -2.473322532852826E-16
lhumerus -20.586366306420338 -8.845321720830167 90.82732924936336
lradius 66.79021294812335
lwrist 3.551068527328773
lhand -28.336854586360687 22.55516291003573
lfingers 7.125020000000014
lthumb -1.7434069523131903 52.624337814876874
rfemur -27.044053042664324 7.30971324582082 28.62780645049608
rtibia 14.862177756062627
rfoot -2.121735251643994 -8.281212687979016
rtoes 7.3130937982407325
lfemur 3.71738895019314 -1.6419418603946758 -18.646909965546833
ltibia 45.02493573273031
lfoot 9.141134024420612 -15.448810828906673
ltoes -12.775765686453814
